<mxfile host="app.diagrams.net" modified="2021-06-06T02:10:23.189Z" agent="5.0 (Windows NT 10.0; Win64; x64) AppleWebKit/537.36 (KHTML, like Gecko) Chrome/91.0.4472.77 Safari/537.36" etag="FHJFJ41t3sjQfmZogxzO" version="14.7.6" type="github">
  <diagram id="qNtHvHr-Q_ltwnV1EGBj" name="Page-1">
    <mxGraphModel dx="857" dy="1864" grid="1" gridSize="10" guides="1" tooltips="1" connect="1" arrows="1" fold="1" page="1" pageScale="1" pageWidth="827" pageHeight="1169" math="0" shadow="0">
      <root>
        <mxCell id="0" />
        <mxCell id="1" parent="0" />
        <mxCell id="ZVWljfa0xVSs0D0JrF7P-1" value="customized by" style="edgeStyle=orthogonalEdgeStyle;rounded=0;orthogonalLoop=1;jettySize=auto;html=1;endArrow=open;endFill=0;" parent="1" source="-fM7mds_HS6A8kRONg-R-9" target="ZVWljfa0xVSs0D0JrF7P-11" edge="1">
          <mxGeometry relative="1" as="geometry">
            <mxPoint x="1348" y="-108" as="targetPoint" />
            <Array as="points">
              <mxPoint x="1208" y="-270" />
            </Array>
          </mxGeometry>
        </mxCell>
        <mxCell id="-fM7mds_HS6A8kRONg-R-9" value="Character Customization" style="swimlane;fontStyle=1;align=center;verticalAlign=top;childLayout=stackLayout;horizontal=1;startSize=26;horizontalStack=0;resizeParent=1;resizeParentMax=0;resizeLast=0;collapsible=1;marginBottom=0;" parent="1" vertex="1">
          <mxGeometry x="1110" y="-222" width="196" height="130" as="geometry" />
        </mxCell>
        <mxCell id="-fM7mds_HS6A8kRONg-R-22" value="hairStyle" style="text;strokeColor=none;fillColor=none;align=left;verticalAlign=top;spacingLeft=4;spacingRight=4;overflow=hidden;rotatable=0;points=[[0,0.5],[1,0.5]];portConstraint=eastwest;" parent="-fM7mds_HS6A8kRONg-R-9" vertex="1">
          <mxGeometry y="26" width="196" height="26" as="geometry" />
        </mxCell>
        <mxCell id="-fM7mds_HS6A8kRONg-R-21" value="hairColor" style="text;strokeColor=none;fillColor=none;align=left;verticalAlign=top;spacingLeft=4;spacingRight=4;overflow=hidden;rotatable=0;points=[[0,0.5],[1,0.5]];portConstraint=eastwest;" parent="-fM7mds_HS6A8kRONg-R-9" vertex="1">
          <mxGeometry y="52" width="196" height="26" as="geometry" />
        </mxCell>
        <mxCell id="-fM7mds_HS6A8kRONg-R-20" value="eyesColor" style="text;strokeColor=none;fillColor=none;align=left;verticalAlign=top;spacingLeft=4;spacingRight=4;overflow=hidden;rotatable=0;points=[[0,0.5],[1,0.5]];portConstraint=eastwest;" parent="-fM7mds_HS6A8kRONg-R-9" vertex="1">
          <mxGeometry y="78" width="196" height="26" as="geometry" />
        </mxCell>
        <mxCell id="Kb90lWqh0blAMlvWXbu4-15" value="skinColor" style="text;strokeColor=none;fillColor=none;align=left;verticalAlign=top;spacingLeft=4;spacingRight=4;overflow=hidden;rotatable=0;points=[[0,0.5],[1,0.5]];portConstraint=eastwest;" parent="-fM7mds_HS6A8kRONg-R-9" vertex="1">
          <mxGeometry y="104" width="196" height="26" as="geometry" />
        </mxCell>
        <mxCell id="ZVWljfa0xVSs0D0JrF7P-18" style="edgeStyle=orthogonalEdgeStyle;rounded=0;orthogonalLoop=1;jettySize=auto;html=1;endArrow=open;endFill=0;" parent="1" source="Kb90lWqh0blAMlvWXbu4-127" target="ZVWljfa0xVSs0D0JrF7P-7" edge="1">
          <mxGeometry relative="1" as="geometry">
            <Array as="points">
              <mxPoint x="910" y="60" />
              <mxPoint x="910" y="60" />
            </Array>
          </mxGeometry>
        </mxCell>
        <mxCell id="Kb90lWqh0blAMlvWXbu4-127" value="Meeting Room" style="swimlane;fontStyle=1;align=center;verticalAlign=top;childLayout=stackLayout;horizontal=1;startSize=26;horizontalStack=0;resizeParent=1;resizeParentMax=0;resizeLast=0;collapsible=1;marginBottom=0;" parent="1" vertex="1">
          <mxGeometry x="790" y="120" width="260" height="130" as="geometry" />
        </mxCell>
        <mxCell id="Kb90lWqh0blAMlvWXbu4-128" value="chatPanel" style="text;strokeColor=none;fillColor=none;align=left;verticalAlign=top;spacingLeft=4;spacingRight=4;overflow=hidden;rotatable=0;points=[[0,0.5],[1,0.5]];portConstraint=eastwest;" parent="Kb90lWqh0blAMlvWXbu4-127" vertex="1">
          <mxGeometry y="26" width="260" height="26" as="geometry" />
        </mxCell>
        <mxCell id="Kb90lWqh0blAMlvWXbu4-129" value="sharedScreenPanel" style="text;strokeColor=none;fillColor=none;align=left;verticalAlign=top;spacingLeft=4;spacingRight=4;overflow=hidden;rotatable=0;points=[[0,0.5],[1,0.5]];portConstraint=eastwest;" parent="Kb90lWqh0blAMlvWXbu4-127" vertex="1">
          <mxGeometry y="52" width="260" height="26" as="geometry" />
        </mxCell>
        <mxCell id="Kb90lWqh0blAMlvWXbu4-130" value="characterPanel" style="text;strokeColor=none;fillColor=none;align=left;verticalAlign=top;spacingLeft=4;spacingRight=4;overflow=hidden;rotatable=0;points=[[0,0.5],[1,0.5]];portConstraint=eastwest;" parent="Kb90lWqh0blAMlvWXbu4-127" vertex="1">
          <mxGeometry y="78" width="260" height="26" as="geometry" />
        </mxCell>
        <mxCell id="ZVWljfa0xVSs0D0JrF7P-15" value="option" style="text;strokeColor=none;fillColor=none;align=left;verticalAlign=top;spacingLeft=4;spacingRight=4;overflow=hidden;rotatable=0;points=[[0,0.5],[1,0.5]];portConstraint=eastwest;" parent="Kb90lWqh0blAMlvWXbu4-127" vertex="1">
          <mxGeometry y="104" width="260" height="26" as="geometry" />
        </mxCell>
        <mxCell id="ZVWljfa0xVSs0D0JrF7P-7" value="Java Application" style="swimlane;fontStyle=1;align=center;verticalAlign=top;childLayout=stackLayout;horizontal=1;startSize=26;horizontalStack=0;resizeParent=1;resizeParentMax=0;resizeLast=0;collapsible=1;marginBottom=0;" parent="1" vertex="1">
          <mxGeometry x="840" y="-28" width="160" height="28" as="geometry" />
        </mxCell>
        <mxCell id="ZVWljfa0xVSs0D0JrF7P-14" value="uses" style="edgeStyle=orthogonalEdgeStyle;rounded=0;orthogonalLoop=1;jettySize=auto;html=1;endArrow=open;endFill=0;" parent="1" source="ZVWljfa0xVSs0D0JrF7P-11" target="ZVWljfa0xVSs0D0JrF7P-7" edge="1">
          <mxGeometry relative="1" as="geometry">
            <Array as="points">
              <mxPoint x="920" y="-190" />
              <mxPoint x="920" y="-190" />
            </Array>
          </mxGeometry>
        </mxCell>
        <mxCell id="ZVWljfa0xVSs0D0JrF7P-11" value="User" style="swimlane;fontStyle=1;align=center;verticalAlign=top;childLayout=stackLayout;horizontal=1;startSize=26;horizontalStack=0;resizeParent=1;resizeParentMax=0;resizeLast=0;collapsible=1;marginBottom=0;" parent="1" vertex="1">
          <mxGeometry x="840" y="-299.9999999999998" width="160" height="78" as="geometry" />
        </mxCell>
        <mxCell id="ZVWljfa0xVSs0D0JrF7P-44" value="UserId" style="text;strokeColor=none;fillColor=none;align=left;verticalAlign=top;spacingLeft=4;spacingRight=4;overflow=hidden;rotatable=0;points=[[0,0.5],[1,0.5]];portConstraint=eastwest;" parent="ZVWljfa0xVSs0D0JrF7P-11" vertex="1">
          <mxGeometry y="26" width="160" height="26" as="geometry" />
        </mxCell>
        <mxCell id="ZVWljfa0xVSs0D0JrF7P-12" value="type" style="text;strokeColor=none;fillColor=none;align=left;verticalAlign=top;spacingLeft=4;spacingRight=4;overflow=hidden;rotatable=0;points=[[0,0.5],[1,0.5]];portConstraint=eastwest;" parent="ZVWljfa0xVSs0D0JrF7P-11" vertex="1">
          <mxGeometry y="52" width="160" height="26" as="geometry" />
        </mxCell>
      </root>
    </mxGraphModel>
  </diagram>
</mxfile>
